<svg xmlns="http://www.w3.org/2000/svg" viewBox="0 0 1228.44 315.28">
  <defs>
    <style>
      .cls-8{fill:#d1d3d4} .cls-12{fill:#29c795}
    </style>
  </defs>
  <g id="Layer_2" data-name="Layer 2">
    <g id="Rendered">
      <text fill="#1c242a" font-family="BasicSans-Bold,Basic Sans" font-size="153.28" font-weight="700" transform="translate(434.14 227.88)">
        Cry<tspan x="238.35" y="0" letter-spacing="-.01em">p</tspan><tspan x="326.33" y="0" letter-spacing="-.01em">t</tspan><tspan x="390.4" y="0" letter-spacing="0">o</tspan><tspan x="476.24" y="0" fill="#29c794" letter-spacing="0">B</tspan><tspan x="570.96" y="0" fill="#29c794" letter-spacing="-.01em">o</tspan><tspan x="655.42" y="0" fill="#29c794">ts</tspan>
      </text>
      <path d="M47.59 181.76c2.09 30-7.11 47.23-22 46.07-14.83-.23-23.34-18.69-25.17-47.91C-2 150.83 6 132.87 20.94 132.84c14.73-1.16 25.06 18.71 26.65 48.92zM374.63 182.22c-2.41 29.28-11.13 46.87-26 45.61-14.88-.33-23.6-18.42-20.81-48.44 2.3-30.32 12.92-49.18 27.54-46.47 14.82 1.54 22.27 20.19 19.27 49.3z" class="cls-8"/>
      <path fill="#f1f2f2" d="M183.44 315.28c-58.78 0-100.72-5.27-128.1-31.23-27.57-26.13-34.14-66.7-35.48-123.54l-.06-.29v-3.17c1.29-58.22 7.83-99.62 36.4-126C84.1 5.18 127.05 0 187.3 0h.54C246.63 0 288.56 5.27 316 31.23c27.55 26.13 34.12 66.67 35.47 123.48l.12.58-.06 2.94c-1.29 58.22-7.83 99.61-36.4 126-27.9 25.81-70.84 31-131.08 31z"/>
      <path fill="#1c242b" d="M333.64 157.65c-2.46-116.28-26-137.43-143.79-137.49-122-.07-145.79 21-148.36 137.49 2.45 116.28 26 137.43 143.78 137.49 122 .07 145.8-21.05 148.37-137.49z"/>
      <path fill="none" stroke="#fff" stroke-miterlimit="10" stroke-width="2.02" d="M185.17 280.69c-61.14 0-91.1-5.72-106.87-20.27S55.88 217.68 54.61 160c1.33-57.66 8.13-85.78 24.2-100.26C95.12 45 126.12 39.27 189.38 39.27h.62c61.14 0 91.11 5.71 106.88 20.27s22.36 42.74 23.64 100.46c-1.34 57.65-8.14 85.77-24.21 100.26C280 275 249 280.69 185.76 280.69z"/>
      <path d="M152.62 160c-1.69 24.71-17.84 41.14-36.12 40-18.28-.73-31.65-19.8-29.94-44.62s17.83-41.14 36.12-40c18.32.68 31.64 19.76 29.94 44.62zM288.63 155.91c-1.26-24.77-17.08-41.53-35.38-40.62-18.3.5-32 19.24-30.75 44.08s17.08 41.53 35.38 40.63c18.3-.51 32.03-19.25 30.75-44.09z" class="cls-12"/>
    </g>
  </g>
</svg>